<svg xmlns="http://www.w3.org/2000/svg" width="28" height="28" viewBox="0 0 28 28">
    <g fill="none">
        <path fill="#CCC" d="M10.28 19.16l2.92-4.24c.587-.907.88-1.827.88-2.76 0-.933-.313-1.693-.94-2.28-.627-.587-1.413-.88-2.36-.88-.947 0-1.733.307-2.36.92-.627.613-.94 1.447-.94 2.5s.44 1.873 1.32 2.46L7 19.16h3.28zm7.4 0l2.92-4.24c.587-.907.88-1.827.88-2.76 0-.933-.313-1.693-.94-2.28-.627-.587-1.413-.88-2.36-.88-.947 0-1.733.307-2.36.92-.627.613-.94 1.447-.94 2.5s.44 1.873 1.32 2.46l-1.8 4.28h3.28z"/>
        <path d="M0 0H28V28H0z"/>
    </g>
</svg>
