<svg xmlns="http://www.w3.org/2000/svg" width="110" height="110" viewBox="0 0 110 110">
    <defs>
        <linearGradient id="prefix__a" x1="100%" x2="0%" y1="50%" y2="50%">
            <stop offset="0%" stop-color="#C5C5C5"/>
            <stop offset="100%" stop-color="#F6F6F6"/>
        </linearGradient>
    </defs>
    <g fill="none" fill-rule="evenodd">
        <circle cx="55" cy="55" r="55" fill="#4C5FC1"/>
        <g>
            <path fill="#FFF" d="M2.444 45.63v-8.963l3.26-.001V.815c0-.45.365-.815.815-.815h44.814c.45 0 .815.365.815.815v40.74c0 2.25-1.824 4.075-4.074 4.075H2.444z" transform="translate(29.333 32.593)"/>
            <g>
                <path fill="#4C5FC1" d="M6.405 8.987c-.822 0-1.488-.666-1.488-1.487 0-.822.666-1.487 1.488-1.487.821 0 1.487.665 1.487 1.487 0 .821-.666 1.487-1.487 1.487" transform="translate(29.333 32.593) translate(13.037 7.333)"/>
                <path fill="#53DBC1" d="M6.405 0C2.873 0 0 2.873 0 6.405v2.58h2.55V6.427c0-2.133 1.73-3.863 3.864-3.863 2.133 0 3.862 1.73 3.862 3.863v2.558h2.533v-2.58C12.81 2.873 9.936 0 6.405 0" transform="translate(29.333 32.593) translate(13.037 7.333)"/>
            </g>
            <path fill="#DDD" d="M19.556 25.26h32.592v1.629H19.556c-.45 0-.815-.365-.815-.815 0-.45.365-.815.815-.815zM19.556 30.963h32.592v1.63H19.556c-.45 0-.815-.365-.815-.815 0-.45.365-.815.815-.815zM19.556 36.667h32.592v1.63H19.556c-.45 0-.815-.366-.815-.816 0-.45.365-.814.815-.814z" transform="translate(29.333 32.593)"/>
            <path fill="url(#prefix__a)" d="M.815 8.148h4.889v34.63c0 1.575-1.277 2.852-2.852 2.852S0 44.353 0 42.778V8.963c0-.45.365-.815.815-.815z" transform="translate(29.333 32.593)"/>
        </g>
    </g>
</svg>
