<svg xmlns="http://www.w3.org/2000/svg" width="70" height="60" viewBox="0 0 70 60">
    <g fill="#CCC" fill-rule="evenodd">
        <path d="M14.148 19.854c-1.814 0-3.285-1.472-3.285-3.286 0-1.815 1.47-3.286 3.285-3.286 1.815 0 3.286 1.471 3.286 3.286 0 1.814-1.47 3.286-3.286 3.286" transform="translate(21 20)"/>
        <path d="M14.148 0C6.347 0 0 6.348 0 14.15v5.699h5.635v-5.65c0-4.713 3.82-8.534 8.534-8.534 4.712 0 8.533 3.82 8.533 8.533v5.65h5.595V14.15C28.297 6.348 21.95 0 14.148 0" transform="translate(21 20)"/>
    </g>
</svg>
