<svg xmlns="http://www.w3.org/2000/svg" width="28" height="28" viewBox="0 0 28 28">
    <g fill="none" fill-rule="evenodd">
        <path fill="#CCC" fill-rule="nonzero" d="M10.3 19.16c.947 0 1.733-.307 2.36-.92.627-.613.94-1.447.94-2.5s-.44-1.873-1.32-2.46L14.08 9H10.8l-2.92 4.24C7.293 14.147 7 15.067 7 16c0 .933.313 1.693.94 2.28.627.587 1.413.88 2.36.88zm7.4 0c.947 0 1.733-.307 2.36-.92.627-.613.94-1.447.94-2.5s-.44-1.873-1.32-2.46L21.48 9H18.2l-2.92 4.24c-.587.907-.88 1.827-.88 2.76 0 .933.313 1.693.94 2.28.627.587 1.413.88 2.36.88z"/>
        <path d="M0 0H28V28H0z"/>
    </g>
</svg>
