<svg xmlns="http://www.w3.org/2000/svg" xmlns:xlink="http://www.w3.org/1999/xlink" width="200" height="200" viewBox="0 0 200 200">
    <defs>
        <linearGradient id="omvut3pq6a" x1="100%" x2="0%" y1="50%" y2="50%">
            <stop offset="0%" stop-color="#C5C5C5"/>
            <stop offset="100%" stop-color="#F6F6F6"/>
        </linearGradient>
        <filter id="ruu3yrodgb" width="238.7%" height="238.7%" x="-69.3%" y="-59.8%" filterUnits="objectBoundingBox">
            <feOffset dy="4" in="SourceAlpha" result="shadowOffsetOuter1"/>
            <feGaussianBlur in="shadowOffsetOuter1" result="shadowBlurOuter1" stdDeviation="9"/>
            <feColorMatrix in="shadowBlurOuter1" values="0 0 0 0 0 0 0 0 0 0 0 0 0 0 0 0 0 0 0.2 0"/>
        </filter>
        <circle id="5znzwcuzkc" cx="20.909" cy="20.909" r="20.909"/>
    </defs>
    <g fill="none" fill-rule="evenodd">
        <circle cx="100" cy="100" r="100" fill="#4C5FC1"/>
        <g>
            <path fill="#FFF" d="M4.444 82.963V66.667l5.925-.001.001-65.185C10.37.663 11.034 0 11.852 0h81.481c.819 0 1.482.663 1.482 1.481v74.075c0 4.09-3.317 7.407-7.408 7.407H4.444z" transform="translate(53.333 59.26)"/>
            <g>
                <path fill="#4C5FC1" d="M11.645 16.34c-1.494 0-2.704-1.21-2.704-2.704 0-1.493 1.21-2.704 2.704-2.704 1.493 0 2.704 1.21 2.704 2.704 0 1.494-1.21 2.705-2.704 2.705" transform="translate(53.333 59.26) translate(23.704 13.333)"/>
                <path fill="#53DBC1" d="M11.645 0C5.223 0 0 5.224 0 11.646v4.69h4.638v-4.65c0-3.879 3.144-7.023 7.023-7.023 3.88 0 7.024 3.144 7.024 7.023v4.65h4.605v-4.69C23.29 5.224 18.066 0 11.645 0" transform="translate(53.333 59.26) translate(23.704 13.333)"/>
            </g>
            <path fill="#DDD" d="M35.556 45.926h59.259v2.963h-59.26c-.818 0-1.48-.663-1.48-1.482 0-.818.662-1.481 1.48-1.481zM35.556 56.296h59.259v2.963h-59.26c-.818 0-1.48-.663-1.48-1.481 0-.818.662-1.482 1.48-1.482zM35.556 66.667h59.259v2.963h-59.26c-.818 0-1.48-.664-1.48-1.482s.662-1.481 1.48-1.481z" transform="translate(53.333 59.26)"/>
            <path fill="url(#omvut3pq6a)" d="M1.481 14.815h8.89v62.963c0 2.863-2.322 5.185-5.186 5.185S0 80.641 0 77.778V16.296c0-.818.663-1.481 1.481-1.481z" transform="translate(53.333 59.26)"/>
        </g>
        <g transform="translate(121.818 41.818)">
            <use fill="#000" filter="url(#ruu3yrodgb)" xlink:href="#5znzwcuzkc"/>
            <use fill="#F42E0A" xlink:href="#5znzwcuzkc"/>
            <path stroke="#FFF" stroke-linecap="round" stroke-linejoin="round" stroke-width="3.636" d="M13.478 21.737L19.017 27.191 29.547 17.441"/>
        </g>
    </g>
</svg>
